<svg width="33" height="29" viewBox="0 0 33 29" fill="none" xmlns="http://www.w3.org/2000/svg">
<path d="M24.899 8.28571H32.2222V11.0476H24.899V8.28571ZM21.9697 15.1905H32.2222V17.9524H21.9697V15.1905ZM26.3636 22.0952H32.2222V24.8571H26.3636V22.0952ZM0 29C0 26.07 1.23448 23.26 3.43188 21.1882C5.62928 19.1163 8.60958 17.9524 11.7172 17.9524C14.8248 17.9524 17.8051 19.1163 20.0025 21.1882C22.1999 23.26 23.4343 26.07 23.4343 29H20.505C20.505 26.8025 19.5792 24.695 17.9311 23.1411C16.2831 21.5872 14.0479 20.7143 11.7172 20.7143C9.38648 20.7143 7.15125 21.5872 5.5032 23.1411C3.85516 24.695 2.92929 26.8025 2.92929 29H0ZM11.7172 16.5714C6.86187 16.5714 2.92929 12.8636 2.92929 8.28571C2.92929 3.70786 6.86187 0 11.7172 0C16.5725 0 20.505 3.70786 20.505 8.28571C20.505 12.8636 16.5725 16.5714 11.7172 16.5714ZM11.7172 13.8095C14.954 13.8095 17.5758 11.3376 17.5758 8.28571C17.5758 5.23381 14.954 2.7619 11.7172 2.7619C8.4803 2.7619 5.85859 5.23381 5.85859 8.28571C5.85859 11.3376 8.4803 13.8095 11.7172 13.8095Z" fill="black"/>
</svg>
