<svg width="30" height="30" viewBox="0 0 30 30" fill="none" xmlns="http://www.w3.org/2000/svg">
<path d="M27.4614 20.0315L29.3357 21.0606C29.4513 21.124 29.547 21.2137 29.6135 21.321C29.6799 21.4283 29.7149 21.5496 29.7149 21.673C29.7149 21.7963 29.6799 21.9176 29.6135 22.0249C29.547 22.1322 29.4513 22.2219 29.3357 22.2853L15.6605 29.7962C15.418 29.9295 15.1404 30 14.8574 30C14.5745 30 14.2969 29.9295 14.0544 29.7962L0.379187 22.2853C0.263558 22.2219 0.167846 22.1322 0.101389 22.0249C0.0349323 21.9176 0 21.7963 0 21.673C0 21.5496 0.0349323 21.4283 0.101389 21.321C0.167846 21.2137 0.263558 21.124 0.379187 21.0606L2.25348 20.0315L14.8574 26.9542L27.4614 20.0315ZM27.4614 13.3228L29.3357 14.352C29.4513 14.4153 29.547 14.5051 29.6135 14.6124C29.6799 14.7197 29.7149 14.8409 29.7149 14.9643C29.7149 15.0877 29.6799 15.2089 29.6135 15.3163C29.547 15.4236 29.4513 15.5133 29.3357 15.5767L14.8574 23.5286L0.379187 15.5767C0.263558 15.5133 0.167846 15.4236 0.101389 15.3163C0.0349323 15.2089 0 15.0877 0 14.9643C0 14.8409 0.0349323 14.7197 0.101389 14.6124C0.167846 14.5051 0.263558 14.4153 0.379187 14.352L2.25348 13.3228L14.8574 20.2456L27.4614 13.3228ZM15.6589 0.203843L29.3357 7.71468C29.4513 7.77805 29.547 7.86777 29.6135 7.97509C29.6799 8.08241 29.7149 8.20366 29.7149 8.32703C29.7149 8.45039 29.6799 8.57164 29.6135 8.67896C29.547 8.78628 29.4513 8.876 29.3357 8.93937L14.8574 16.8913L0.379187 8.93937C0.263558 8.876 0.167846 8.78628 0.101389 8.67896C0.0349323 8.57164 0 8.45039 0 8.32703C0 8.20366 0.0349323 8.08241 0.101389 7.97509C0.167846 7.86777 0.263558 7.77805 0.379187 7.71468L14.0544 0.203843C14.2969 0.0704643 14.5745 0 14.8574 0C15.1404 0 15.418 0.0704643 15.6605 0.203843H15.6589ZM14.8574 3.09142L5.32534 8.32703L14.8574 13.5626L24.3895 8.32703L14.8574 3.09142Z" fill="black"/>
</svg>
