<svg width="30" height="27" viewBox="0 0 30 27" fill="none" xmlns="http://www.w3.org/2000/svg">
<path d="M6.6568 22.1538L0 27V1.38462C0 1.01739 0.157427 0.66521 0.43765 0.405544C0.717873 0.145879 1.09794 0 1.49423 0H28.3904C28.7867 0 29.1667 0.145879 29.447 0.405544C29.7272 0.66521 29.8846 1.01739 29.8846 1.38462V20.7692C29.8846 21.1365 29.7272 21.4886 29.447 21.7483C29.1667 22.008 28.7867 22.1538 28.3904 22.1538H6.6568ZM5.62279 19.3846H26.8962V2.76923H2.98846V21.3023L5.62279 19.3846ZM13.4481 9.69231H16.4365V12.4615H13.4481V9.69231ZM7.47115 9.69231H10.4596V12.4615H7.47115V9.69231ZM19.425 9.69231H22.4135V12.4615H19.425V9.69231Z" fill="black"/>
</svg>
