<svg width="17" height="18" viewBox="0 0 17 18" fill="none" xmlns="http://www.w3.org/2000/svg">
<path d="M7.53175 0C11.6893 0 15.0635 3.57271 15.0635 7.9748C15.0635 12.3769 11.6893 15.9496 7.53175 15.9496C3.37422 15.9496 0 12.3769 0 7.9748C0 3.57271 3.37422 0 7.53175 0ZM7.53175 14.1774C10.7679 14.1774 13.3898 11.4013 13.3898 7.9748C13.3898 4.54741 10.7679 1.77218 7.53175 1.77218C4.29477 1.77218 1.67372 4.54741 1.67372 7.9748C1.67372 11.4013 4.29477 14.1774 7.53175 14.1774ZM14.6325 14.2403L17 16.7462L15.8158 18L13.4492 15.4933L14.6325 14.2403Z" fill="black"/>
</svg>
